<svg xmlns="http://www.w3.org/2000/svg" id="iconsSVG" style="display: none;">
  <symbol viewBox="0 0 256 256" id="icon-pulse">
    <polyline points="24 128 56 128 96 40 160 208 200 128 232 128" fill="none" stroke-linecap="round" stroke-linejoin="round" stroke-width="16"/>
  </symbol>
  <symbol viewBox="0 0 256 256" id="icon-floppy-disk">
    <path d="M216,91.31V208a8,8,0,0,1-8,8H48a8,8,0,0,1-8-8V48a8,8,0,0,1,8-8H164.69a8,8,0,0,1,5.65,2.34l43.32,43.32A8,8,0,0,1,216,91.31Z" fill="none" stroke-linecap="round" stroke-linejoin="round" stroke-width="16"/>
    <path d="M80,216V152a8,8,0,0,1,8-8h80a8,8,0,0,1,8,8v64" fill="none" stroke-linecap="round" stroke-linejoin="round" stroke-width="16"/>
    <line x1="152" y1="72" x2="96" y2="72" fill="none" stroke-linecap="round" stroke-linejoin="round" stroke-width="16"/>
  </symbol>
  <symbol viewBox="0 0 256 256" id="icon-download-simple">
    <line x1="128" y1="152" x2="128" y2="40" fill="none" stroke-linecap="round" stroke-linejoin="round" stroke-width="16"/>
    <path d="M216,152v56a8,8,0,0,1-8,8H48a8,8,0,0,1-8-8V152" fill="none" stroke-linecap="round" stroke-linejoin="round" stroke-width="16"/>
    <polyline points="168 112 128 152 88 112" fill="none" stroke-linecap="round" stroke-linejoin="round" stroke-width="16"/>
  </symbol>
  <symbol viewBox="0 0 256 256" id="icon-x">
    <line x1="200" y1="56" x2="56" y2="200" fill="none" stroke-linecap="round" stroke-linejoin="round" stroke-width="24"/>
    <line x1="200" y1="200" x2="56" y2="56" fill="none" stroke-linecap="round" stroke-linejoin="round" stroke-width="24"/>
  </symbol>
  <symbol viewBox="0 0 256 256" id="icon-check">
    <polyline points="40 144 96 200 224 72" fill="none" stroke-linecap="round" stroke-linejoin="round" stroke-width="24"/>
  </symbol>
  <symbol viewBox="0 0 256 256" id="icon-books">
    <rect x="48" y="40" width="64" height="176" rx="8" fill="none" stroke-linecap="round" stroke-linejoin="round" stroke-width="12"/>
    <path d="M217.67,205.77l-46.81,10a8,8,0,0,1-9.5-6.21L128.18,51.8a8.07,8.07,0,0,1,6.15-9.57l46.81-10a8,8,0,0,1,9.5,6.21L223.82,196.2A8.07,8.07,0,0,1,217.67,205.77Z" fill="none" stroke-linecap="round" stroke-linejoin="round" stroke-width="12"/>
    <line x1="48" y1="72" x2="112" y2="72" fill="none" stroke-linecap="round" stroke-linejoin="round" stroke-width="12"/>
    <line x1="48" y1="184" x2="112" y2="184" fill="none" stroke-linecap="round" stroke-linejoin="round" stroke-width="12"/>
    <line x1="133.16" y1="75.48" x2="195.61" y2="62.06" fill="none" stroke-linecap="round" stroke-linejoin="round" stroke-width="12"/>
    <line x1="139.79" y1="107.04" x2="202.25" y2="93.62" fill="none" stroke-linecap="round" stroke-linejoin="round" stroke-width="12"/>
    <line x1="156.39" y1="185.94" x2="218.84" y2="172.52" fill="none" stroke-linecap="round" stroke-linejoin="round" stroke-width="12"/>
  </symbol>
  <symbol viewBox="0 0 256 256" id="icon-trash">
    <line x1="216" y1="56" x2="40" y2="56" fill="none" stroke-linecap="round" stroke-linejoin="round" stroke-width="12"/>
    <line x1="104" y1="104" x2="104" y2="168" fill="none" stroke-linecap="round" stroke-linejoin="round" stroke-width="12"/>
    <line x1="152" y1="104" x2="152" y2="168" fill="none" stroke-linecap="round" stroke-linejoin="round" stroke-width="12"/>
    <path d="M200,56V208a8,8,0,0,1-8,8H64a8,8,0,0,1-8-8V56" fill="none" stroke-linecap="round" stroke-linejoin="round" stroke-width="12"/>
    <path d="M168,56V40a16,16,0,0,0-16-16H104A16,16,0,0,0,88,40V56" fill="none" stroke-linecap="round" stroke-linejoin="round" stroke-width="12"/>
  </symbol>
  <symbol viewBox="0 0 256 256" id="icon-copy">
    <polyline points="168 168 216 168 216 40 88 40 88 88" fill="none" stroke-linecap="round" stroke-linejoin="round" stroke-width="12"/>
    <rect x="40" y="88" width="128" height="128" fill="none" stroke-linecap="round" stroke-linejoin="round" stroke-width="12"/>
  </symbol>
</svg>
